<svg xmlns="http://www.w3.org/2000/svg" id="Capa_1" enable-background="new 0 0 511.199 511.199" height="512" viewBox="0 0 511.199 511.199" width="512"><g><g><path d="m428.274 245.729h-345.349c-15.514 0-27.934-12.866-27.387-28.37l.799-22.653c1.646-46.639 6.35-93.121 14.084-139.144 4.336-25.804 26.033-45.121 52.165-46.445 71.775-2.75 193.622-3.667 266.026 0 26.132 1.323 47.829 20.641 52.165 46.445 7.734 46.023 12.439 92.504 14.084 139.144l.799 22.653c.548 15.504-11.872 28.37-27.386 28.37z" fill="#e3e0e4"/></g><g><path d="m455.661 217.359-.799-22.653c-1.646-46.639-6.351-93.121-14.084-139.144-4.336-25.804-26.033-45.121-52.165-46.445-37.438-1.896-88.095-2.566-138.214-2.392 39.836.143 78.258.875 108.214 2.392 26.132 1.323 47.829 20.641 52.165 46.445 7.734 46.023 12.439 92.504 14.084 139.144l.799 22.653c.547 15.504-11.874 28.37-27.387 28.37h30c15.514 0 27.934-12.866 27.387-28.37z" fill="#d4cfd5"/></g><g><path d="m454.862 194.706c-.172-4.87-.385-9.737-.623-14.603h-397.279c-.238 4.866-.452 9.734-.623 14.603l-.799 22.652c-.547 15.504 11.873 28.371 27.387 28.371h345.349c15.514 0 27.934-12.866 27.387-28.371z" fill="#b5adb7"/></g><g><path d="m401.181 280.086h-71.771c-5.43 0-9.832-4.402-9.832-9.832v-24.525h91.436v24.525c-.001 5.43-4.403 9.832-9.833 9.832z" fill="#ef879b"/></g><g><path d="m245.667 97.864h-88.732c-12.367 0-22.393-10.026-22.393-22.393v-4.19c0-12.367 10.026-22.393 22.393-22.393h88.732c12.367 0 22.393 10.026 22.393 22.393v4.19c0 12.367-10.026 22.393-22.393 22.393z" fill="#b5adb7"/></g><g><path d="m455.661 217.358-.799-22.652c-.172-4.87-.385-9.737-.623-14.603h-30c.238 4.866.452 9.734.623 14.603l.799 22.652c.547 15.504-11.874 28.371-27.387 28.371h30c15.514 0 27.934-12.866 27.387-28.371z" fill="#a59da7"/></g><g><path d="m381.013 245.729v24.525c0 5.43-4.402 9.832-9.832 9.832h30c5.43 0 9.832-4.402 9.832-9.832v-24.525z" fill="#ec6a85"/></g><g><path d="m245.667 48.887h-30c12.367 0 22.393 10.026 22.393 22.393v4.19c0 12.368-10.026 22.393-22.393 22.393h30c12.367 0 22.393-10.026 22.393-22.393v-4.19c0-12.367-10.026-22.393-22.393-22.393z" fill="#a59da7"/></g><g><path d="m463.156 217.094s-7.222-116.593-14.982-162.774c-2.379-14.159-9.595-27.214-20.318-36.761s-24.525-15.205-38.864-15.931c-71.835-3.638-264.609-.044-266.548-.008l-.237.008c-14.338.726-28.141 6.384-38.864 15.931-10.723 9.546-17.938 22.602-20.318 36.76-7.76 46.178-14.982 162.775-14.982 162.775-.337 9.551 3.133 18.597 9.77 25.473s15.556 10.662 25.112 10.662h77.157c4.142 0 7.5-3.358 7.5-7.5s-3.358-7.5-7.5-7.5h-77.157c-5.45 0-10.535-2.159-14.32-6.08s-5.764-9.08-5.572-14.526c0 0 .986-27.564 1.09-30.021h382.953c.104 2.457 1.09 30.02 1.09 30.02.192 5.447-1.787 10.605-5.572 14.526s-8.871 6.08-14.32 6.08h-238.192c-4.142 0-7.5 3.358-7.5 7.5s3.358 7.5 7.5 7.5h121.996v17.025c0 9.557 7.775 17.332 17.332 17.332h26.266v92.698c-26.977 4.366-47.838 31.908-47.838 65.147 0 35.971 24.428 65.274 54.602 65.746.249.013.495.022.736.022s.487-.009.736-.022c30.174-.472 54.602-29.774 54.602-65.746 0-33.24-20.861-60.781-47.838-65.147v-92.698h30.506c9.557 0 17.332-7.775 17.332-17.332v-17.025h9.761c9.557 0 18.475-3.787 25.112-10.662s10.106-15.921 9.769-25.472zm-93.358 264.623c-2.522 9.173-5.329 13.082-6.622 14.226-1.294-1.144-4.101-5.053-6.622-14.226-2.741-9.971-4.251-22.858-4.251-36.286s1.51-26.314 4.251-36.285c2.522-9.173 5.328-13.082 6.622-14.226 1.293 1.144 4.1 5.053 6.622 14.226 2.741 9.971 4.25 22.857 4.25 36.285s-1.51 26.315-4.25 36.286zm-46.96-36.286c0-18.873 8.232-35.361 20.407-44.11-.071.219-.144.43-.214.653-3.694 11.716-5.729 27.149-5.729 43.457 0 16.309 2.035 31.742 5.729 43.457.07.223.143.434.214.654-12.176-8.749-20.407-25.238-20.407-44.111zm80.675 0c0 18.874-8.232 35.363-20.408 44.111.071-.219.144-.431.214-.654 3.694-11.715 5.728-27.148 5.728-43.457 0-16.308-2.034-31.742-5.728-43.456-.07-.224-.143-.435-.214-.654 12.177 8.748 20.408 25.237 20.408 44.11zm0-175.177c0 1.286-1.046 2.332-2.332 2.332h-71.772c-1.286 0-2.332-1.046-2.332-2.332v-17.025h76.436zm-338.644-97.651c2.196-38.762 6.532-77.614 12.949-115.797 3.716-22.118 22.647-39.003 45.034-40.191 5.833-.109 194.813-3.58 265.381-.006 22.438 1.136 41.425 18.041 45.147 40.197 6.417 38.186 10.753 77.038 12.948 115.797z"/><path d="m388.14 103.412h-36.001c-4.142 0-7.5 3.358-7.5 7.5s3.358 7.5 7.5 7.5h36.001c4.142 0 7.5-3.358 7.5-7.5s-3.358-7.5-7.5-7.5z"/><path d="m388.14 132.959h-36.001c-4.142 0-7.5 3.358-7.5 7.5s3.358 7.5 7.5 7.5h36.001c4.142 0 7.5-3.358 7.5-7.5 0-4.143-3.358-7.5-7.5-7.5z"/><path d="m245.667 41.387h-20.942c-4.142 0-7.5 3.358-7.5 7.5s3.358 7.5 7.5 7.5h20.942c8.212 0 14.893 6.681 14.893 14.893v4.19c0 8.212-6.681 14.893-14.893 14.893h-88.732c-8.212 0-14.893-6.681-14.893-14.893v-4.19c0-8.212 6.681-14.893 14.893-14.893h37.79c4.142 0 7.5-3.358 7.5-7.5s-3.358-7.5-7.5-7.5h-37.79c-16.483 0-29.893 13.41-29.893 29.893v4.19c0 16.483 13.41 29.893 29.893 29.893h88.732c16.483 0 29.893-13.41 29.893-29.893v-4.19c0-16.483-13.41-29.893-29.893-29.893z"/></g></g></svg>