<svg xmlns="http://www.w3.org/2000/svg" id="Capa_1" enable-background="new 0 0 512.01 512.01" height="512" viewBox="0 0 512.01 512.01" width="512"><g><g><g><path d="m167.454 168.162c-7.264-7.882-7.171-20.236.202-28.015 2.756-2.908 6.147-4.827 9.741-5.758 1.78-.461 3.18-1.861 3.641-3.641.931-3.594 2.85-6.984 5.758-9.741 7.78-7.373 20.134-7.465 28.015-.202 7.664 7.063 8.685 18.458 3.069 26.679-1.186 1.735-1.008 4.058.478 5.544l32.103 32.103-18.681 18.681-32.103-32.103c-1.486-1.486-3.808-1.663-5.544-.478-8.221 5.616-19.615 4.596-26.679-3.069z" fill="#f7f6f7"/><path d="m276.967 326.861c26.889 26.889 70.628 26.658 97.227-.693 25.938-26.671 25.782-69.015-.341-95.505-12.084-12.254-27.637-18.969-43.525-20.148-20.361-1.511-39.773-9.209-55.51-22.217l-21.991-18.177c-10.179-8.414-25.088-7.708-34.427 1.631-9.339 9.339-10.045 24.247-1.631 34.427l19.131 23.144c12.453 15.066 20.079 33.647 21.185 53.162.917 16.151 7.543 32.037 19.882 44.376z" fill="#c6855b"/><path d="m373.853 230.663c-12.084-12.254-27.637-18.969-43.525-20.148-20.361-1.511-39.773-9.209-55.51-22.217l-21.991-18.177c-10.179-8.415-25.088-7.708-34.427 1.63-2.449 2.449-4.289 5.287-5.542 8.317 3.556.908 6.969 2.574 9.968 5.053l21.991 18.177c15.737 13.008 35.149 20.706 55.51 22.217 15.888 1.179 31.441 7.894 43.525 20.148 26.123 26.49 26.279 68.833.341 95.504-1.41 1.45-2.878 2.808-4.38 4.105 12.642-2.75 24.658-9.108 34.38-19.105 25.939-26.671 25.783-69.014-.34-95.504z" fill="#c17e4e"/></g><path d="m435.508 442.506.01-.01c16.37-14.55 26.67-31.13 27.52-48.68 1.85-38.2-41.54-71.12-74.1-92.37-5.51-3.6-10.71-6.86-15.32-9.76-23.26-14.59-60.37-37.89-109.55-37.71-5.42.02-11 .32-16.71.96-29.03 3.22-52.06 13.85-68.25 23.78-8.701 5.498-21.053 14.153-34.134 26.661-19.777 18.91-58.101 55.555-52.406 98.58 1.106 8.359 4.614 22.547 17.77 38.55h325.17z" fill="#c6855b"/><path d="m388.938 301.446c-5.51-3.6-10.71-6.86-15.32-9.76-23.26-14.59-60.37-37.89-109.55-37.71-4.707.018-9.54.261-14.468.74 41.509 4.036 73.276 23.959 94.018 36.97 4.61 2.9 9.81 6.16 15.32 9.76 32.56 21.25 75.95 54.17 74.1 92.37-.85 17.55-11.15 34.13-27.52 48.68l-.01.01h30l.01-.01c16.37-14.55 26.67-31.13 27.52-48.68 1.85-38.2-41.54-71.12-74.1-92.37z" fill="#c17e4e"/><path d="m456.824 504.506h-401.633c-11.718 0-22.379-6.73-27.353-17.267l-20.041-42.46c-.939-1.989.523-4.273 2.735-4.273h490.951c2.212 0 3.674 2.284 2.735 4.273l-20.041 42.46c-4.973 10.537-15.634 17.267-27.353 17.267z" fill="#ecf4ff"/><path d="m501.483 440.506h-30c2.212 0 3.674 2.284 2.735 4.273l-20.041 42.459c-4.974 10.537-15.635 17.267-27.353 17.267h30c11.718 0 22.379-6.73 27.353-17.267l20.041-42.459c.94-1.989-.522-4.273-2.735-4.273z" fill="#ddeafb"/><path d="m375.805 364.018c10.969 2.091 24.353 4.8 32.868 12.611 19.413 17.809-8.551 27.543-23.442 31.268-25.133 6.288-75.883 4.09-92.602-33.182-9.04-20.152-3.762-40.856 1.786-54.023 1.825-4.331 8.099-3.98 9.399.536.78 2.71 1.826 5.592 3.225 8.562 1.637 3.474 4.881 10.99 12.296 17.048 11.15 9.11 26.182 12.329 40.057 14.522 3.933.623 9.865 1.41 16.413 2.658z" fill="#c17e4e"/><g><path d="m108.266 386.003c16.671 16.671 38.837 25.852 62.413 25.853h.002c24.041 0 46.52-9.499 63.292-26.745 16.214-16.673 25.098-38.633 25.015-61.835-.084-23.2-9.123-45.096-25.453-61.655-1.257-1.274-2.561-2.491-3.885-3.681-20.805 4.729-37.801 12.961-50.542 20.776-8.701 5.498-21.053 14.153-34.134 26.661-14.487 13.852-38.924 37.221-48.723 65.642 3.427 5.373 7.437 10.407 12.015 14.984z" fill="#c17e4e"/><path d="m12.896 213.162c-7.264-7.882-7.171-20.236.202-28.015 2.756-2.908 6.147-4.827 9.741-5.758 1.78-.461 3.18-1.861 3.641-3.641.931-3.594 2.85-6.984 5.758-9.741 7.78-7.373 20.134-7.465 28.015-.202 7.664 7.063 8.685 18.458 3.069 26.679-1.186 1.735-1.008 4.058.478 5.544l32.103 32.103-18.681 18.681-32.103-32.103c-1.486-1.486-3.808-1.663-5.544-.478-8.221 5.616-19.616 4.596-26.679-3.069z" fill="#f7f6f7"/><path d="m122.409 371.861c26.889 26.889 70.628 26.658 97.227-.693 25.938-26.671 25.782-69.015-.341-95.505-12.084-12.254-27.637-18.969-43.525-20.148-20.361-1.511-39.773-9.209-55.51-22.217l-21.991-18.177c-10.179-8.414-25.088-7.708-34.427 1.631-9.339 9.339-10.045 24.247-1.631 34.427l19.131 23.144c12.453 15.066 20.079 33.647 21.185 53.162.917 16.151 7.543 32.037 19.882 44.376z" fill="#c6855b"/></g></g><path d="m119.296 146.498c3.558-2.122 4.722-6.725 2.6-10.283-3.662-6.142-5.221-12.033-4.632-17.511.417-3.879 1.739-6.395 3.57-9.876 1.797-3.417 3.833-7.29 5.087-12.801 2.254-9.91.857-20.727-4.153-32.15-1.663-3.793-6.085-5.519-9.881-3.855-3.793 1.664-5.52 6.087-3.855 9.881 3.691 8.417 4.789 16.087 3.263 22.797-.817 3.596-2.17 6.168-3.736 9.147-2.103 3.999-4.485 8.53-5.208 15.255-.944 8.784 1.298 17.799 6.663 26.796 2.141 3.593 6.774 4.692 10.282 2.6zm308.793 47.774c3.558-2.122 4.722-6.725 2.6-10.283-3.662-6.141-5.22-12.032-4.631-17.511.417-3.879 1.739-6.396 3.57-9.877 1.797-3.417 3.832-7.289 5.087-12.8 2.254-9.91.857-20.727-4.153-32.149-1.663-3.793-6.084-5.518-9.881-3.856-3.793 1.664-5.52 6.088-3.855 9.881 3.691 8.418 4.789 16.088 3.264 22.797-.819 3.597-2.172 6.169-3.737 9.148-2.103 3.999-4.485 8.531-5.208 15.255-.944 8.785 1.297 17.801 6.662 26.797 2.141 3.591 6.774 4.69 10.282 2.598zm34.829 83.478c3.558-2.122 4.722-6.725 2.6-10.283-3.662-6.141-5.22-12.032-4.632-17.511.417-3.878 1.739-6.394 3.57-9.876 1.797-3.417 3.833-7.29 5.086-12.8 2.256-9.908.859-20.725-4.151-32.15-1.663-3.793-6.088-5.52-9.88-3.857-3.794 1.664-5.521 6.087-3.856 9.881 3.691 8.419 4.789 16.089 3.262 22.798-.817 3.596-2.171 6.169-3.736 9.148-2.103 3.998-4.485 8.53-5.208 15.254-.943 8.785 1.299 17.8 6.663 26.796 2.141 3.593 6.774 4.692 10.282 2.6zm-388.622-190.636c3.558-2.122 4.722-6.725 2.6-10.283-3.662-6.142-5.221-12.033-4.632-17.511.417-3.878 1.739-6.394 3.57-9.876 1.797-3.417 3.833-7.29 5.087-12.801 2.254-9.91.856-20.727-4.153-32.149-1.663-3.793-6.086-5.518-9.881-3.856-3.793 1.664-5.52 6.088-3.855 9.881 3.691 8.417 4.789 16.088 3.263 22.798-.817 3.596-2.171 6.169-3.736 9.148-2.103 3.998-4.485 8.53-5.208 15.254-.944 8.784 1.298 17.799 6.663 26.796 2.141 3.592 6.774 4.691 10.282 2.599zm339.447 283.989c-10.302-9.451-25.463-12.341-36.534-14.452-6.464-1.233-11.259-1.847-16.646-2.698-13.309-2.103-26.938-5.124-36.482-12.922-8.427-6.885-10.752-13.859-13.06-21.876-1.481-5.148-5.897-8.68-11.25-8.998-5.36-.321-10.181 2.674-12.267 7.624-6.327 15.016-11.761 37.615-1.718 60.004 8.33 18.571 24.994 31.413 48.191 37.138 9.232 2.279 18.554 3.175 27.148 3.175 10.089 0 19.176-1.236 25.925-2.925 20.844-5.214 32.701-12.934 35.242-22.943 1.249-4.915.778-12.57-8.549-21.127zm-5.988 17.436c-.562 2.213-6.373 7.587-24.345 12.083-10.752 2.689-28.438 4.033-45.839-.262-12.938-3.193-30.049-10.767-38.1-28.714-6.574-14.658-4.452-29.896-.544-41.672 3.335 7.697 5.146 14.081 15.662 22.673 12.305 10.053 28.241 13.69 43.631 16.122 5.418.856 16.18 2.616 16.18 2.616 9.303 1.774 22.043 4.203 29.202 10.771 3.456 3.171 4.397 5.42 4.153 6.383zm102.619 49.352c-1.939-3.059-5.264-4.886-8.891-4.886h-46.654c9.777-12.465 15.054-25.472 15.7-38.827.764-15.768-5.156-31.923-17.596-48.016-2.532-3.278-7.243-3.879-10.521-1.348-3.277 2.533-3.88 7.244-1.347 10.521 10.194 13.19 15.066 26.015 14.48 38.118-.645 13.333-7.671 26.627-20.868 39.552h-241.941c-4.143 0-7.5 3.358-7.5 7.5s3.357 7.5 7.5 7.5h301.666l-17.008 36.032c-3.718 7.877-11.792 12.968-20.57 12.968h-401.633c-8.778 0-16.853-5.09-20.57-12.969l-17.008-36.031h91.121.009.006 48.987c4.143 0 7.5-3.358 7.5-7.5s-3.357-7.5-7.5-7.5h-45.235c-6.93-9.663-11.137-19.75-12.498-30.032-1.615-12.221.748-25.081 6.992-38.36 2.898 4.495 6.27 8.711 10.11 12.551 14.324 14.324 33.325 22.192 53.562 22.191.181 0 .363 0 .544-.002 20.436-.142 39.542-8.295 53.802-22.957 13.92-14.314 21.547-33.164 21.476-53.076-.076-21.197-8.98-41.258-24.636-55.594 52.415-16.972 111.782 7.664 148.814 30.962 14.894 9.371 35.327 23.158 46.968 32.92 3.158 2.649 7.893 2.26 10.566-.928 2.661-3.174 2.246-7.904-.928-10.566-8.311-6.969-17.613-13.867-28.946-21.454 7.067-25.804-.131-53.996-19.129-73.262-12.882-13.064-30.04-21.006-48.314-22.364-19.016-1.41-36.751-8.506-51.288-20.522l-21.986-18.167c-7.199-5.954-16.145-8.393-24.761-7.431l-7.409-7.415c6.165-11.144 3.982-25.438-5.548-34.211-10.792-9.942-27.593-9.823-38.253.274-3.484 3.304-6.048 7.411-7.472 11.948-4.551 1.426-8.661 3.994-11.951 7.476-10.099 10.66-10.218 27.466-.271 38.261 8.765 9.51 23.049 11.692 34.21 5.54l7.446 7.445c-.971 8.847 1.69 17.826 7.387 24.72l19.132 23.152c3.7 4.474 6.916 9.256 9.623 14.289-11.198 1.714-22.264 4.587-33.024 8.566-9.323-5.044-19.661-8.128-30.393-8.925-19.02-1.411-36.754-8.506-51.286-20.518l-21.991-18.177c-7.2-5.952-16.146-8.389-24.762-7.427l-7.408-7.414c6.162-11.14 3.985-25.433-5.541-34.213-10.801-9.938-27.604-9.818-38.259.277-3.483 3.303-6.048 7.41-7.473 11.949-4.536 1.423-8.645 3.988-11.951 7.475-10.099 10.66-10.218 27.465-.271 38.261 8.77 9.514 23.054 11.697 34.212 5.541l7.411 7.411c-.961 8.615 1.476 17.558 7.426 24.756l19.13 23.144c11.57 13.998 18.488 31.331 19.479 48.809.39 6.868 1.711 13.584 3.879 19.99-11.575 19.46-16.221 38.634-13.789 57.042 1.274 9.622 4.486 19.017 9.581 28.065h-84.181c-3.627 0-6.951 1.827-8.891 4.886-1.934 3.05-2.168 6.821-.627 10.089l20.042 42.458c6.183 13.101 19.581 21.566 34.135 21.566h401.633c14.554 0 27.952-8.465 34.135-21.565l20.043-42.462c1.54-3.264 1.305-7.035-.628-10.086zm-297.276-271.443c-1.369 1.366-2.594 2.836-3.687 4.385l-4.448-4.449c-4.032-4.004-10.372-4.561-15.05-1.346-5.299 3.614-12.584 2.773-16.939-1.955-4.621-5.015-4.564-12.825.136-17.786 1.681-1.778 3.813-3.041 6.164-3.65 4.425-1.143 7.883-4.601 9.025-9.021.607-2.348 1.873-4.484 3.657-6.175 4.95-4.689 12.756-4.747 17.772-.127 4.734 4.358 5.577 11.637 1.953 16.937-3.228 4.733-2.644 11.078 1.37 15.067l4.431 4.434c-1.537 1.086-3.007 2.31-4.384 3.686zm9.453 34.953c-2.678-3.245-4.153-7.341-4.153-11.535 0-4.845 1.882-9.391 5.303-12.806 2.33-2.329 5.133-3.885 8.098-4.688.269-.053.534-.125.797-.208 5.276-1.174 10.982.042 15.456 3.744l21.988 18.169c16.946 14.006 37.602 22.277 59.733 23.918 14.652 1.088 28.412 7.458 38.744 17.937 14.089 14.287 20.085 34.688 16.435 54.036-28.401-18.12-73.176-46.576-129.299-43.241-3.66-7.914-8.335-15.36-13.974-22.179zm-164.012 10.048c-1.376 1.376-2.601 2.847-3.687 4.384l-4.448-4.449c-4.032-4.004-10.372-4.562-15.053-1.343-5.295 3.613-12.578 2.772-16.938-1.957-4.621-5.016-4.564-12.826.127-17.777 1.693-1.786 3.83-3.052 6.174-3.659 4.424-1.143 7.882-4.601 9.023-9.02.609-2.349 1.875-4.486 3.659-6.178 4.951-4.691 12.762-4.746 17.778-.129 4.731 4.36 5.57 11.639 1.946 16.939-3.218 4.719-2.64 11.057 1.371 15.067l4.43 4.434c-1.536 1.087-3.006 2.311-4.382 3.688zm28.585 58.095-19.131-23.144c-6.047-7.305-5.421-17.771 1.153-24.345 6.573-6.573 17.112-7.15 24.344-1.153l21.991 18.177c16.94 14.003 37.597 22.273 59.733 23.916 14.648 1.087 28.407 7.457 38.74 17.935 11.249 11.407 17.476 26.481 17.533 42.445.058 15.964-6.062 31.081-17.229 42.564-11.438 11.761-26.763 18.301-43.152 18.416-.146.001-.29.001-.437.001-16.229 0-31.471-6.311-42.957-17.798h-.001c-10.565-10.565-16.851-24.592-17.695-39.497-1.17-20.647-9.3-41.073-22.892-57.517z"/></g></svg>