<svg xmlns="http://www.w3.org/2000/svg" id="Layer_1" height="512" viewBox="0 0 512 512" width="512" data-name="Layer 1"><path d="m412.75 77.15a17.584 17.584 0 0 1 3.68 24.63l-22.94 30.84-.19.21a207.44 207.44 0 0 0 -27.72-20.75l22.58-31.1a17.541 17.541 0 0 1 24.59-3.83z" fill="#b3d1e7"/><path d="m147.7 111.27.01.02a206.176 206.176 0 0 0 -27.94 20.6l-22.93-30.18a17.556 17.556 0 1 1 28.05-21.12z" fill="#b3d1e7"/><path d="m276.25 17h-40.5a19.709 19.709 0 0 0 -19.75 19.41v12.59h80v-12.59a19.709 19.709 0 0 0 -19.75-19.41z" fill="#8aafc4"/><path d="m119.77 131.89a206.521 206.521 0 0 1 121.25-50.65q7.425-.54 14.98-.54 5.535 0 11 .29a207.039 207.039 0 0 1 195.97 206.86c0 114.41-92.66 207.15-206.97 207.15s-206.97-92.74-206.97-207.15a206.727 206.727 0 0 1 70.74-155.96z" fill="#5fa8ed"/><path d="m269 49v31.99q-5.46-.285-11-.29-7.56 0-14.98.54l-.02-.24v-32.04h26z" fill="#b3d1e7"/><path d="m256 109.12c98.63 0 178.58 80.02 178.58 178.73s-79.95 178.73-178.58 178.73-178.58-80.02-178.58-178.73 79.95-178.73 178.58-178.73z" fill="#f1ce7c"/><path d="m256 179.76a108.09 108.09 0 1 1 -108 108.09 108.041 108.041 0 0 1 108-108.09z" fill="#eb7288"/><path d="m256 206.34-14.06 80.02 27.25-.51z" fill="#4ca987"/><path d="m241.94 286.36a15.727 15.727 0 1 1 -1.67 7.05 15.714 15.714 0 0 1 1.67-7.05z" fill="#5fcda4"/><path d="m107.42 287.85c0-93.653 71.972-170.471 163.58-178.1-4.946-.412-9.947-.633-15-.633-98.63 0-178.58 80.02-178.58 178.73s79.95 178.733 178.58 178.733c5.053 0 10.054-.221 15-.633-91.608-7.626-163.58-84.447-163.58-178.097z" fill="#d3af66"/><path d="m178 287.85a108.071 108.071 0 0 1 93-107.05 108.09 108.09 0 1 0 0 214.1 108.071 108.071 0 0 1 -93-107.05z" fill="#d3667d"/><g fill="#284268"><path d="m256 103.12c-101.776 0-184.577 82.869-184.577 184.73s82.801 184.729 184.577 184.729 184.577-82.869 184.577-184.729-82.801-184.73-184.577-184.73zm0 357.459c-95.159 0-172.577-77.486-172.577-172.729s77.418-172.73 172.577-172.73 172.577 77.486 172.577 172.73-77.418 172.729-172.577 172.729z"/><path d="m401.306 132.17 19.935-26.808a23.55 23.55 0 1 0 -37.941-27.911l-19.39 26.706a211.338 211.338 0 0 0 -90.91-28.779v-20.378h22.645a6.351 6.351 0 0 0 6.355-6.043v-12.546c0-14.011-11.748-25.411-25.751-25.411h-40.5c-14.001 0-25.749 11.4-25.749 25.411v12.546a6.351 6.351 0 0 0 6.355 6.043h18.645v20.735a211.309 211.309 0 0 0 -85.665 27.683l-19.625-26.4a23.557 23.557 0 1 0 -37.648 28.322l19.659 25.874a212.7 212.7 0 0 0 -68.695 156.636c0 117.531 95.54 213.15 212.974 213.15s212.974-95.619 212.974-213.15a212.675 212.675 0 0 0 -67.668-155.68zm-8.291-47.67a11.55 11.55 0 1 1 18.6 13.7l-19.326 25.988a214.316 214.316 0 0 0 -18.191-13.63zm-171.015-41.5v-6.589a13.726 13.726 0 0 1 13.751-13.411h40.5a13.726 13.726 0 0 1 13.749 13.411v6.589zm39 12v19.762c-1.662-.038-3.328-.063-5-.063-3.017 0-6.014.079-9 .2v-19.899zm-159.383 43.08a11.557 11.557 0 1 1 18.462-13.908l19.025 25.6a214.492 214.492 0 0 0 -18.329 13.528zm154.383 390.92c-110.817 0-200.974-90.236-200.974-201.15s90.157-201.15 200.974-201.15 200.974 90.235 200.974 201.15-90.157 201.15-200.974 201.15z"/><path d="m256 173.757a113.292 113.292 0 0 0 -65.769 20.959 5.995 5.995 0 1 0 6.993 9.739 102.216 102.216 0 1 1 -26.358 27.23 6.02 6.02 0 0 0 -.726-7.589l-.008-.007a5.985 5.985 0 0 0 -9.214.89 113.483 113.483 0 0 0 -18.918 62.871c0 62.91 51.141 114.092 114 114.092s114-51.182 114-114.092-51.141-114.093-114-114.093z"/><path d="m255 163.751a6 6 0 0 0 6-6v-27.951a6 6 0 0 0 -12 0v27.951a6 6 0 0 0 6 6z"/><path d="m257 411.949a6 6 0 0 0 -6 6v27.951a6 6 0 0 0 12 0v-27.951a6 6 0 0 0 -6-6z"/><path d="m277.731 293.406a21.612 21.612 0 0 0 -2.631-10.366l-13.18-77.875a6.143 6.143 0 0 0 -5.9-5.165h-.02a6.15 6.15 0 0 0 -5.909 5.129l-13.933 79.431a21.728 21.728 0 1 0 41.573 8.846zm-21.839-51.814 5.2 30.692a21.684 21.684 0 0 0 -10.614.1zm-9.623 51.814a9.731 9.731 0 1 1 9.731 9.732 9.742 9.742 0 0 1 -9.731-9.732z"/><path d="m386.1 293h27.95a6 6 0 0 0 0-12h-27.95a6 6 0 1 0 0 12z"/><path d="m125.9 283h-27.949a6 6 0 0 0 0 12h27.949a6 6 0 0 0 0-12z"/><path d="m347.448 201.311a5.98 5.98 0 0 0 4.242-1.757l19.765-19.765a6 6 0 0 0 -8.484-8.485l-19.765 19.764a6 6 0 0 0 4.242 10.243z"/><path d="m160.309 376.146-19.764 19.764a6 6 0 1 0 8.484 8.485l19.764-19.764a6 6 0 0 0 -8.484-8.485z"/><path d="m352.78 375.055a6 6 0 1 0 -8.484 8.486l19.765 19.764a6 6 0 1 0 8.484-8.486z"/><path d="m159.219 200.643a6 6 0 1 0 8.484-8.485l-19.764-19.764a6 6 0 0 0 -8.484 8.485z"/><path d="m210.207 365.387a6 6 0 1 0 6.127-10.318 78.087 78.087 0 0 1 -27.929-106.156 6 6 0 1 0 -10.392-6 90.084 90.084 0 0 0 32.194 122.472z"/><path d="m194.811 236.293a5.981 5.981 0 0 0 4.374-1.893c1.632-1.737 3.366-3.422 5.154-5.009a6 6 0 1 0 -7.965-8.975c-2.059 1.826-4.056 3.768-5.936 5.77a6 6 0 0 0 4.373 10.107z"/></g></svg>